<svg width="32" height="31" viewBox="0 0 32 31" fill="none" xmlns="http://www.w3.org/2000/svg">
<path d="M16.0862 0.118285C24.5061 0.118285 31.3535 6.96568 31.3535 15.3856C31.3535 23.8056 24.5061 30.653 16.0862 30.653C7.66625 30.653 0.818848 23.8056 0.818849 15.3856C0.818849 6.96568 7.66625 0.118284 16.0862 0.118285ZM16.0862 26.8361C22.3992 26.8361 27.5367 21.6987 27.5367 15.3856C27.5367 9.07258 22.3992 3.93512 16.0862 3.93512C9.77314 3.93512 4.63568 9.07257 4.63568 15.3856C4.63568 21.6987 9.77314 26.8361 16.0862 26.8361Z" fill="#4C8631"/>
<path d="M9.83481 15.1339L14.5295 20.3019C14.5295 20.3019 14.5753 20.3401 14.5906 20.3553C14.6135 20.3782 14.6211 20.4011 14.644 20.4164C14.6746 20.4393 14.7051 20.4622 14.728 20.4851C14.7814 20.5309 14.8272 20.5691 14.8883 20.5996C14.9417 20.6378 14.9952 20.6683 15.0486 20.6912C15.102 20.7218 15.1555 20.7447 15.2165 20.7676C15.2776 20.7905 15.3387 20.8134 15.3998 20.8286C15.4532 20.8439 15.5143 20.8592 15.5677 20.8744C15.6288 20.8897 15.6975 20.8973 15.7585 20.905C15.8196 20.905 15.873 20.9126 15.9341 20.9126C15.9952 20.9126 16.0639 20.9126 16.125 20.905C16.186 20.905 16.2395 20.8897 16.3005 20.8821C16.3616 20.8668 16.4227 20.8515 16.4837 20.8363C16.5448 20.821 16.5982 20.7981 16.6517 20.7752C16.7127 20.7523 16.7662 20.7218 16.8273 20.6912C16.8807 20.6607 16.9341 20.6302 16.9876 20.5996C17.041 20.5614 17.0944 20.5233 17.1479 20.4851C17.1784 20.4622 17.2089 20.4469 17.2318 20.4164C17.2547 20.3935 17.27 20.3706 17.2853 20.3553C17.3082 20.3324 17.3311 20.3248 17.3463 20.3019L22.2319 15.0118C22.9495 14.2408 22.896 13.027 22.125 12.3171C21.7586 11.9812 21.2929 11.8133 20.8273 11.8133C20.3158 11.8133 19.8044 12.0194 19.4227 12.424L15.957 16.1797L12.6593 12.5537C12.2852 12.1415 11.7661 11.9278 11.247 11.9278C10.789 11.9278 10.331 12.0881 9.96458 12.424C9.18595 13.1339 9.12488 14.34 9.83481 15.1186L9.83481 15.1339Z" fill="#4C8631"/>
</svg>
