<svg width="189" height="68" viewBox="0 0 189 68" fill="none" xmlns="http://www.w3.org/2000/svg">
<path d="M37.2782 31.1465H42.7314V0.894531H36.6354V19.4936L23.5311 1.03967L23.4274 0.894531H18.0156V31.1465H24.0702V12.5475L37.1745 31.0014L37.2782 31.1465Z" fill="black"/>
<path d="M54.3475 0.894531H48.293V31.1258H54.3475V0.894531Z" fill="black"/>
<path d="M74.5628 31.8104C78.9171 31.8104 82.6908 30.2553 85.7388 27.1658L85.8425 27.0621L85.801 25.3826L82.2969 22.0236L82.048 22.2517C79.6843 24.574 77.1546 25.7351 74.5628 25.7351C71.971 25.7351 69.6072 24.7606 67.6996 22.8322C65.7713 20.9454 64.7967 18.6231 64.7967 15.969C64.7967 13.315 65.7713 11.0342 67.6996 9.10585C69.5657 7.21898 71.888 6.24445 74.5628 6.24445C77.2376 6.24445 79.705 7.4056 82.048 9.70715L82.2969 9.93523L86.6926 5.70535L86.4438 5.45653C82.8774 1.93162 78.8756 0.148438 74.5628 0.148438C70.25 0.148438 66.4555 1.72428 63.3453 4.83449C60.2973 7.8825 58.7422 11.6355 58.7422 15.969C58.7422 20.3026 60.2973 24.0971 63.3453 27.1451C66.414 30.2138 70.1878 31.7896 74.5628 31.7896V31.8104Z" fill="black"/>
<path d="M104.125 31.8106C108.48 31.8106 112.253 30.2555 115.301 27.1661C118.37 24.0973 119.946 20.3236 119.946 15.99C119.946 11.6565 118.391 7.90349 115.301 4.81402C112.233 1.74527 108.459 0.169434 104.125 0.169434C99.7917 0.169434 96.0387 1.72454 92.9078 4.81402C89.8598 7.86202 88.3047 11.615 88.3047 15.99C88.3047 20.3651 89.8598 24.1181 92.9078 27.1661C95.9765 30.2348 99.7503 31.8106 104.125 31.8106ZM94.3592 15.99C94.3592 13.3567 95.3338 11.0552 97.2621 9.12684C99.1282 7.21925 101.43 6.26545 104.125 6.26545C106.821 6.26545 109.081 7.21925 110.988 9.12684C112.896 11.0137 113.85 13.336 113.85 15.99C113.85 18.6441 112.896 20.9871 110.988 22.8532C109.06 24.7816 106.759 25.7561 104.125 25.7561C101.492 25.7561 99.1697 24.7816 97.2621 22.8532C95.3338 20.9664 94.3592 18.6441 94.3592 15.99Z" fill="black"/>
<path d="M139.819 0.894531L132.894 10.7021L126.114 1.03967L126.01 0.894531H118.504L129.867 17.0262V31.1465H135.963V17.0262L147.325 0.894531H139.819Z" fill="black"/>
<path d="M149.559 31.1465L151.84 24.9054H161.855L164.177 31.1465H170.626L159.698 1.12261L159.615 0.894531H154.121L143.09 31.1258H149.538L149.559 31.1465ZM154.038 18.8508L156.858 11.096L159.678 18.8508H154.038Z" fill="black"/>
<path d="M19.8431 39.3783C17.9148 37.761 15.634 36.9316 13.0421 36.9316H0V67.1629H6.05454V55.0538H13.0421C15.6547 55.0538 17.977 54.2244 19.8846 52.5656C21.9374 50.8239 22.9741 48.6053 22.9741 45.9927C22.9741 43.3801 21.9166 41.1823 19.8639 39.3783H19.8431ZM15.7377 48.1077C14.9497 48.6882 14.0374 48.9993 13.0214 48.9993H6.03381V42.9862H13.0214C14.0374 42.9862 14.9497 43.2765 15.7377 43.8778C16.4841 44.4169 16.8573 45.1219 16.8573 46.0135C16.8573 46.9051 16.4841 47.5893 15.7377 48.1491V48.1077Z" fill="black"/>
<path d="M44.7878 55.4892C44.7878 57.2102 44.1657 58.7031 42.9631 59.9472C41.719 61.1706 40.2261 61.7926 38.5051 61.7926C36.7842 61.7926 35.2913 61.1706 34.0472 59.9679C32.8238 58.7239 32.2225 57.231 32.2225 55.51V36.9316H26.168V55.51C26.168 58.8483 27.3913 61.7926 29.7758 64.2393C32.2225 66.6445 35.1668 67.8471 38.5051 67.8471C41.8434 67.8471 44.8085 66.6238 47.2759 64.2393C49.6812 61.7926 50.8838 58.8483 50.8838 55.51V36.9316H44.7878V55.51V55.4892Z" fill="black"/>
<path d="M75.869 56.0083L74.7286 54.4117C74.5834 54.2044 74.4383 54.0178 74.2931 53.8312C75.3299 53.2713 76.2837 52.5249 77.1338 51.5711C78.523 49.933 79.228 48.0462 79.228 45.9727C79.228 43.3809 78.1705 41.1622 76.1178 39.3583C74.1895 37.741 71.9086 36.9116 69.2961 36.9116H56.2539V67.1429H62.3085V55.0338H65.1698C67.0774 55.0338 68.4045 55.6351 69.1716 56.8584L75.869 67.1636H83.0847L75.8275 56.0083H75.9104H75.869ZM73.132 45.9934C73.132 46.885 72.7588 47.5693 72.0123 48.1291C71.2451 48.7097 70.3328 49.0207 69.2961 49.0207H62.3085V43.0076H69.2961C70.3121 43.0076 71.2244 43.2979 72.0123 43.8992C72.7588 44.4383 73.132 45.1433 73.132 46.0349V45.9934Z" fill="black"/>
<path d="M100.498 36.9316H95.0035L83.9727 67.1629H90.4212L92.702 60.9217H102.717L105.039 67.1629H111.488L100.54 37.1597L100.457 36.9316H100.498ZM100.54 54.8879H94.8999L97.7198 47.1331L100.54 54.8879Z" fill="black"/>
<path d="M109.086 42.9862H118.043V67.1629H124.139V42.9862H133.097V36.9316H109.086V42.9862Z" fill="black"/>
<path d="M136.414 67.1629H158.372V61.0669H142.469V55.0538H154.889V48.9993H142.469V42.9862H158.372V36.9316H136.414V67.1629Z" fill="black"/>
<path d="M177.737 37.1597L177.654 36.9316H172.16L161.129 67.1629H167.577L169.858 60.9217H179.873L182.195 67.1629H188.644L177.696 37.1597H177.737ZM177.717 54.8879H172.077L174.897 47.1331L177.717 54.8879Z" fill="black"/>
</svg>
