<svg data-name="Group 1063" xmlns="http://www.w3.org/2000/svg" width="109.997" height="102.991" viewBox="0 0 109.997 102.991">
    <defs>
        <clipPath id="fhzhcxf1ta">
            <path data-name="Rectangle 197" style="stroke:#707070;fill:none;stroke-width:4px" d="M0 0h109.997v102.991H0z"/>
        </clipPath>
    </defs>
    <g data-name="Group 1062" style="clip-path:url(#fhzhcxf1ta)">
        <path data-name="Path 1115" d="M20.024 1.25s9.231 16.709 2.306 32.221C16.713 46.047.6 49.36 17.373 99.9" transform="translate(7.345 .922)" style="stroke-linecap:round;stroke-linejoin:round;stroke:#394553;fill:none;stroke-width:4px"/>
        <path data-name="Path 1116" d="M49.617 1.25s-9.232 16.709-2.308 32.221C52.926 46.047 69.037 49.36 52.264 99.9" transform="translate(33.014 .922)" style="stroke-linecap:round;stroke-linejoin:round;stroke:#394553;fill:none;stroke-width:4px"/>
        <path data-name="Line 95" transform="translate(54.999 80.689)" style="stroke-linecap:round;stroke-linejoin:round;stroke:#394553;fill:none;stroke-width:4px" d="M0 20.13V0"/>
        <path data-name="Path 1117" d="M11.57 29.669s31.3 12.017 69.778 0" transform="translate(8.539 21.896)" style="stroke-linecap:round;stroke-linejoin:round;stroke:#394553;fill:none;stroke-width:4px"/>
        <path data-name="Path 1118" d="M46.664 55.194c-2.47-.325-3.026-.421-5.085-2.011-13.447-10.383-31.09-18.635-31.09-18.635" transform="translate(7.741 25.496)" style="stroke-linecap:round;stroke-linejoin:round;stroke:#394553;fill:none;stroke-width:4px"/>
        <path data-name="Path 1119" d="M31.986 55.194c2.471-.325 3.028-.421 5.087-2.011C50.52 42.8 68.164 34.548 68.164 34.548" transform="translate(23.606 25.496)" style="stroke-linecap:round;stroke-linejoin:round;stroke:#394553;fill:none;stroke-width:4px"/>
        <path data-name="Line 96" transform="translate(2.173 22.753)" style="stroke-linecap:round;stroke-linejoin:round;stroke:#394553;fill:none;stroke-width:4px" d="M0 0h18.746"/>
        <path data-name="Line 97" transform="translate(12.884 14.688)" style="stroke-linecap:round;stroke-linejoin:round;stroke:#394553;fill:none;stroke-width:4px" d="m0 0 8.054 8.052"/>
        <path data-name="Line 98" transform="translate(12.884 22.816)" style="stroke-linecap:round;stroke-linejoin:round;stroke:#394553;fill:none;stroke-width:4px" d="M8.054 0 0 8.054"/>
        <path data-name="Line 99" transform="translate(89.08 22.766)" style="stroke-linecap:round;stroke-linejoin:round;stroke:#394553;fill:none;stroke-width:4px" d="M18.744 0H0"/>
        <path data-name="Line 100" transform="translate(89.059 14.675)" style="stroke-linecap:round;stroke-linejoin:round;stroke:#394553;fill:none;stroke-width:4px" d="M8.056 0 0 8.052"/>
        <path data-name="Line 101" transform="translate(89.06 22.803)" style="stroke-linecap:round;stroke-linejoin:round;stroke:#394553;fill:none;stroke-width:4px" d="m0 0 8.056 8.054"/>
        <path data-name="Path 1120" d="M32.8 19.275c0 .7-.363 1.269-.815 1.269s-.813-.567-.813-1.269.369-1.275.817-1.275.815.568.815 1.274" transform="translate(23.008 13.284)" style="stroke:#707070;fill:none;stroke-width:4px"/>
        <path data-name="Path 1121" d="M32.8 19.275c0 .7-.363 1.269-.815 1.269s-.813-.567-.813-1.269.369-1.275.817-1.275.811.569.811 1.275z" transform="translate(23.008 13.284)" style="stroke-miterlimit:10;stroke:#394553;fill:none;stroke-width:4px"/>
    </g>
</svg>
