<svg xmlns="http://www.w3.org/2000/svg" width="102.287" height="102.261" viewBox="0 0 102.287 102.261">
    <defs>
        <clipPath id="x7sqq79s8a">
            <path data-name="Rectangle 200" style="stroke-width:4px;stroke:transparent;fill:none" d="M0 0h102.287v102.261H0z"/>
        </clipPath>
    </defs>
    <g data-name="Group 1069">
        <g data-name="Group 1068" style="clip-path:url(#x7sqq79s8a)">
            <path data-name="Path 1139" d="M51.136 4.345A46.786 46.786 0 1 1 4.345 51.134 46.852 46.852 0 0 1 51.136 4.345m0-4.345a51.131 51.131 0 1 0 51.153 51.134A51.134 51.134 0 0 0 51.136 0" transform="translate(0 -.001)" style="fill:#394553;stroke-width:4px;stroke:transparent"/>
            <path data-name="Path 1140" d="M30.456 39.879c4.176 0 7.574 2.729 7.574 6.085s-3.4 6.081-7.574 6.081-7.571-2.729-7.571-6.081 3.394-6.085 7.571-6.085m0-4.345c-6.582 0-11.916 4.668-11.916 10.43S23.874 56.39 30.456 56.39s11.919-4.668 11.919-10.426-5.334-10.43-11.919-10.43" transform="translate(13.683 26.224)" style="fill:#394553;stroke-width:4px;stroke:transparent"/>
            <path data-name="Path 1141" d="M38.015 13.944c7.593 0 13.772 5.588 13.772 12.456a11.264 11.264 0 0 1-.4 2.923 4.346 4.346 0 0 0 1.962 4.84 6.214 6.214 0 0 1 3.179 5.271c0 3.664-3.313 6.839-7.387 7.077-.149.009-.3.014-.45.014a6.012 6.012 0 0 1-6.038-4.634 4.347 4.347 0 0 0-4.15-3.061h-.115c-.129 0-.255.01-.37.021-7.59 0-13.765-5.586-13.765-12.455S30.428 13.94 38.018 13.94m0-4.345c-10 0-18.11 7.522-18.11 16.8s8.108 16.8 18.11 16.8c.163 0 .322-.017.483-.023a10.313 10.313 0 0 0 10.19 7.694c.235 0 .471-.007.706-.021 6.375-.374 11.476-5.5 11.476-11.415a10.533 10.533 0 0 0-5.287-9 15.621 15.621 0 0 0 .549-4.039c0-9.279-8.108-16.8-18.117-16.8" transform="translate(14.69 7.084)" style="fill:#394553;stroke-width:4px;stroke:transparent"/>
            <path data-name="Path 1142" d="M10.3 27.941a1.3 1.3 0 1 1 1.3-1.3 1.3 1.3 0 0 1-1.3 1.3" transform="translate(6.64 18.696)" style="fill:#394553;stroke-width:4px;stroke:transparent"/>
            <circle data-name="Ellipse 68" cx="1.304" cy="1.304" transform="translate(15.637 44.029)" style="stroke:#394553;stroke-miterlimit:10;stroke-width:4px;fill:none" r="1.304"/>
            <path data-name="Path 1143" d="M46.135 19.941a1.3 1.3 0 1 1 1.3-1.3 1.3 1.3 0 0 1-1.3 1.3" transform="translate(33.086 12.792)" style="fill:#394553;stroke-width:4px;stroke:transparent"/>
            <circle data-name="Ellipse 69" cx="1.304" cy="1.304" transform="translate(77.917 30.125)" style="stroke:#394553;stroke-miterlimit:10;stroke-width:4px;fill:none" r="1.304"/>
            <path data-name="Path 1144" d="M47.551 40.191a1.3 1.3 0 1 1 1.3-1.3 1.3 1.3 0 0 1-1.3 1.3" transform="translate(34.131 27.737)" style="fill:#394553;stroke-width:4px;stroke:transparent"/>
            <circle data-name="Ellipse 70" cx="1.304" cy="1.304" transform="translate(80.378 65.32)" style="stroke:#394553;stroke-miterlimit:10;stroke-width:4px;fill:none" r="1.304"/>
            <path data-name="Path 1145" d="M50.885 29.727c-.461 0-1.3-.982-1.3-2.586s.843-2.588 1.3-2.588 1.3.982 1.3 2.588-.843 2.586-1.3 2.586" transform="translate(36.591 18.12)" style="fill:#394553;stroke-width:4px;stroke:transparent"/>
            <path data-name="Path 1146" d="M50.885 29.727c-.461 0-1.3-.982-1.3-2.586s.843-2.588 1.3-2.588 1.3.982 1.3 2.588-.84 2.586-1.3 2.586z" transform="translate(36.591 18.12)" style="stroke:#394553;stroke-miterlimit:10;stroke-width:4px;fill:none"/>
            <path data-name="Path 1147" d="M17.452 32.352c-.923 0-1.955-1.394-1.955-3.259s1.032-3.259 1.955-3.259 1.955 1.394 1.955 3.259-1.032 3.259-1.955 3.259" transform="translate(11.437 19.065)" style="fill:#394553;stroke-width:4px;stroke:transparent"/>
            <ellipse data-name="Ellipse 71" cx="1.955" cy="3.259" rx="1.955" ry="3.259" transform="translate(26.934 44.898)" style="stroke:#394553;stroke-miterlimit:10;stroke-width:4px;fill:none"/>
            <path data-name="Path 1148" d="M38.242 47.652a1.057 1.057 0 0 1-.48-.106c-.829-.407-1.142-2.112-.32-3.787a3.522 3.522 0 0 1 2.711-2.169 1.077 1.077 0 0 1 .478.1c.829.407 1.142 2.113.32 3.787a3.519 3.519 0 0 1-2.71 2.171" transform="translate(27.278 30.693)" style="fill:#394553;stroke-width:4px;stroke:transparent"/>
            <path data-name="Path 1149" d="M38.242 47.652a1.057 1.057 0 0 1-.48-.106c-.829-.407-1.142-2.112-.32-3.787a3.522 3.522 0 0 1 2.711-2.169 1.077 1.077 0 0 1 .478.1c.829.407 1.142 2.113.32 3.787a3.519 3.519 0 0 1-2.709 2.175z" transform="translate(27.278 30.693)" style="stroke:#394553;stroke-miterlimit:10;stroke-width:4px;fill:none"/>
            <path data-name="Path 1150" d="M14.952 22.126A1.8 1.8 0 0 1 13 20.6a1.8 1.8 0 0 1 1.955-1.521 1.8 1.8 0 0 1 1.953 1.521 1.8 1.8 0 0 1-1.955 1.521" transform="translate(9.592 14.084)" style="fill:#394553;stroke-width:4px;stroke:transparent"/>
            <ellipse data-name="Ellipse 72" cx="1.955" cy="1.521" rx="1.955" ry="1.521" transform="translate(22.589 33.167)" style="stroke:#394553;stroke-miterlimit:10;stroke-width:4px;fill:none"/>
        </g>
    </g>
</svg>
