<svg xmlns="http://www.w3.org/2000/svg" width="74.541" height="102.261" viewBox="0 0 74.541 102.261">
    <defs>
        <clipPath id="39v9wq6caa">
            <path data-name="Rectangle 201" style="stroke:#707070;fill:none;stroke-width:4px" d="M0 0h74.541v102.261H0z"/>
        </clipPath>
    </defs>
    <g data-name="Group 1071">
        <g data-name="Group 1070" style="clip-path:url(#39v9wq6caa)">
            <path data-name="Path 1151" d="M99.444 72.193c.415-14.11-20.667-24.583-20.667-24.583-24.47-11.4-23.8-24.953-23.8-24.953C54.618 6.383 70.218 5.106 74.8 5.007c2.174-.045 17.431-.359 25.387 18.808a26.634 26.634 0 0 1 1.375 11.137" transform="translate(-35.093 -3.192)" style="stroke:#394553;stroke-linecap:round;stroke-linejoin:round;fill:none;stroke-width:4px"/>
            <path data-name="Path 1152" d="M128.292 43.324s28.389 13.562 26.219 36.345a29.108 29.108 0 0 1-8.028 17.359" transform="translate(-81.896 -27.656)" style="stroke:#394553;stroke-linecap:round;stroke-linejoin:round;fill:none;stroke-width:4px"/>
            <path data-name="Path 1153" d="M15.88 55.386c-8.193 6.679-20.132 24.434.87 51.367" transform="translate(-3.192 -35.356)" style="stroke:#394553;stroke-linecap:round;stroke-linejoin:round;fill:none;stroke-width:4px"/>
            <path data-name="Path 1154" d="M52.7 122.23c-5.554 2.17-17.875 8.891-16.186 25.349" transform="translate(-23.209 -78.026)" style="stroke:#394553;stroke-linecap:round;stroke-linejoin:round;fill:none;stroke-width:4px"/>
            <path data-name="Path 1155" d="M84.629 7.488s-11.571 8.2 5.3 21.218" transform="translate(-51.554 -4.78)" style="stroke:#394553;stroke-linecap:round;stroke-linejoin:round;fill:none;stroke-width:4px"/>
            <path data-name="Path 1156" d="M175.862 126.293s7.089 5.93 8.052 11.236" transform="translate(-112.263 -80.62)" style="stroke:#394553;stroke-linecap:round;stroke-linejoin:round;fill:none;stroke-width:4px"/>
            <path data-name="Path 1157" d="M105.675 277.769h0z" transform="translate(-67.456 -177.316)" style="stroke:#394553;stroke-linecap:round;stroke-linejoin:round;fill:none;stroke-width:4px"/>
            <path data-name="Path 1158" d="M35.964 190.8s7.119 31.449 25.644 31.452S87.251 190.8 87.251 190.8" transform="translate(-22.958 -121.799)" style="stroke:#394553;stroke-linecap:round;stroke-linejoin:round;fill:none;stroke-width:4px"/>
            <path data-name="Path 1159" d="M70.258 180.316a17.836 17.836 0 0 0-8.388-.087" transform="translate(-39.495 -114.774)" style="stroke:#394553;stroke-linecap:round;stroke-linejoin:round;fill:none;stroke-width:4px"/>
            <path data-name="Path 1160" d="M128.674 180.316a17.836 17.836 0 0 1 8.388-.087" transform="translate(-82.14 -114.774)" style="stroke:#394553;stroke-linecap:round;stroke-linejoin:round;fill:none;stroke-width:4px"/>
            <path data-name="Line 102" transform="translate(35.032 86.73)" style="stroke:#394553;stroke-linecap:round;stroke-linejoin:round;fill:none;stroke-width:4px" d="M0 0h7.233"/>
        </g>
    </g>
</svg>
